<svg xmlns="http://www.w3.org/2000/svg" width="126.169" height="100.936" viewBox="0 0 126.169 100.936">
  <defs>
    <style>
      .cls-1 {
        fill: #0a3641;
      }
    </style>
  </defs>
  <path id="Icon_awesome-truck" data-name="Icon awesome-truck" class="cls-1" d="M123.015,69.393h-3.154V48.082a9.463,9.463,0,0,0-2.78-6.683L97.387,21.705a9.463,9.463,0,0,0-6.683-2.78H82.01V9.463A9.465,9.465,0,0,0,72.547,0H9.463A9.465,9.465,0,0,0,0,9.463V72.547A9.465,9.465,0,0,0,9.463,82.01h3.154a18.925,18.925,0,1,0,37.851,0H75.7a18.925,18.925,0,0,0,37.851,0h9.463a3.164,3.164,0,0,0,3.154-3.154V72.547A3.164,3.164,0,0,0,123.015,69.393ZM31.542,91.473a9.463,9.463,0,1,1,9.463-9.463A9.465,9.465,0,0,1,31.542,91.473Zm63.085,0a9.463,9.463,0,1,1,9.463-9.463A9.465,9.465,0,0,1,94.627,91.473ZM110.4,50.468H82.01V28.388H90.7L110.4,48.082Z"/>
</svg>
