<svg xmlns="http://www.w3.org/2000/svg" width="63.753" height="92.757" viewBox="0 0 63.753 92.757">
  <defs>
    <style>
      .cls-1 {
        fill: #0a3641;
      }
    </style>
  </defs>
  <path id="Icon_awesome-question" data-name="Icon awesome-question" class="cls-1" d="M33.762,0C19.3,0,9.935,5.925,2.582,16.491a4.353,4.353,0,0,0,.938,5.956l7.815,5.926a4.348,4.348,0,0,0,6.024-.751c4.538-5.685,7.9-8.958,14.993-8.958,5.573,0,12.467,3.587,12.467,8.991,0,4.086-3.373,6.184-8.876,9.269C29.526,40.521,21.034,45,21.034,56.2v1.773a4.348,4.348,0,0,0,4.348,4.348H38.511a4.348,4.348,0,0,0,4.348-4.348V56.927c0-7.765,22.694-8.088,22.694-29.1C65.553,12,49.139,0,33.762,0ZM31.946,67.658A12.549,12.549,0,1,0,44.5,80.207,12.564,12.564,0,0,0,31.946,67.658Z" transform="translate(-1.8)"/>
</svg>
