<svg xmlns="http://www.w3.org/2000/svg" width="133.982" height="92.757" viewBox="0 0 133.982 92.757">
  <defs>
    <style>
      .cls-1 {
        fill: #0a3641;
      }
    </style>
  </defs>
  <g id="Icon_ionic-ios-mail" data-name="Icon ionic-ios-mail" transform="translate(-3.375 -7.875)">
    <path id="Path_2884" data-name="Path 2884" class="cls-1" d="M136.262,10.512l-34.655,35.3a.623.623,0,0,0,0,.9l24.252,25.83a4.179,4.179,0,0,1,0,5.926,4.2,4.2,0,0,1-5.926,0L95.778,52.736a.661.661,0,0,0-.934,0L88.95,58.726A25.932,25.932,0,0,1,70.463,66.52,26.452,26.452,0,0,1,51.589,58.5l-5.668-5.765a.661.661,0,0,0-.934,0L20.831,78.469a4.2,4.2,0,0,1-5.926,0,4.179,4.179,0,0,1,0-5.926l24.252-25.83a.686.686,0,0,0,0-.9L4.47,10.512a.635.635,0,0,0-1.1.451v70.63A10.337,10.337,0,0,0,13.681,91.9H127.051a10.337,10.337,0,0,0,10.306-10.306V10.963A.644.644,0,0,0,136.262,10.512Z" transform="translate(0 8.732)"/>
    <path id="Path_2885" data-name="Path 2885" class="cls-1" d="M67.32,66.846a17.51,17.51,0,0,0,12.593-5.282L130.446,10.13a10.122,10.122,0,0,0-6.377-2.255H10.6A10.056,10.056,0,0,0,4.226,10.13L54.759,61.564A17.512,17.512,0,0,0,67.32,66.846Z" transform="translate(3.046 0)"/>
  </g>
</svg>
